<?xml version="1.0" standalone="no"?>
<!DOCTYPE svg PUBLIC "-//W3C//DTD SVG 20010904//EN"
 "http://www.w3.org/TR/2001/REC-SVG-20010904/DTD/svg10.dtd">
<svg version="1.0" xmlns="http://www.w3.org/2000/svg"
 width="48.000000pt" height="48.000000pt" viewBox="0 0 48.000000 48.000000"
 preserveAspectRatio="xMidYMid meet">

<g transform="translate(0.000000,48.000000) scale(0.100000,-0.100000)"
fill="#000000" stroke="none">
<path d="M221 395 c-7 -16 -14 -36 -16 -43 -3 -8 -10 -10 -17 -6 -7 4 -30 18
-50 31 -21 13 -38 21 -38 19 0 -2 9 -25 20 -51 11 -26 18 -51 15 -56 -3 -4
-21 -11 -40 -15 -46 -8 -44 -18 5 -34 22 -7 40 -16 40 -19 0 -4 -12 -24 -26
-45 l-26 -38 33 8 c70 15 73 14 82 -46 l9 -55 25 50 c14 28 27 52 29 54 2 2
22 -4 46 -14 24 -9 49 -20 56 -23 9 -3 4 15 -13 48 -14 28 -25 53 -23 54 2 1
23 11 47 21 35 16 40 20 25 26 -11 4 -31 8 -46 8 -15 1 -29 5 -32 9 -2 4 9 30
26 56 16 27 24 46 16 44 -7 -3 -32 -14 -56 -23 -24 -10 -44 -16 -46 -14 -1 2
-10 22 -18 44 l-16 40 -11 -30z m54 -84 c34 13 38 10 20 -17 -18 -28 -13 -39
20 -47 19 -5 19 -5 -2 -12 -27 -9 -28 -13 -8 -39 22 -29 18 -36 -14 -23 -26
10 -32 8 -50 -14 l-20 -24 -1 29 c0 27 -2 28 -36 23 l-36 -6 17 25 c9 14 15
27 13 28 -2 2 -12 8 -22 13 -19 10 -19 11 2 17 18 6 20 11 12 32 -14 37 -13
38 16 19 22 -14 28 -15 35 -4 5 8 9 19 9 24 0 6 6 0 13 -11 9 -16 17 -19 32
-13z"/>
</g>
</svg>
